<svg width="32" height="32" viewBox="0 0 32 32" fill="none" xmlns="http://www.w3.org/2000/svg">
<path fill-rule="evenodd" clip-rule="evenodd" d="M16 1C13.0333 1 10.1332 1.87973 7.66645 3.52796C5.19972 5.17618 3.27713 7.51885 2.14181 10.2597C1.0065 13.0006 0.709449 16.0166 1.28823 18.9263C1.86701 21.8361 3.29562 24.5088 5.3934 26.6066C7.49119 28.7044 10.1639 30.133 13.0737 30.7118C15.9834 31.2905 18.9994 30.9935 21.7403 29.8582C24.4811 28.7229 26.8238 26.8003 28.472 24.3335C30.1203 21.8668 31 18.9667 31 16H16V1Z" stroke="#0E8383" stroke-width="2" stroke-linecap="round" stroke-linejoin="round"/>
<path fill-rule="evenodd" clip-rule="evenodd" d="M20.5 11.5H30.31C29.5855 9.19581 28.3152 7.10066 26.6073 5.39271C24.8993 3.68475 22.8042 2.41451 20.5 1.69V11.5Z" stroke="#0E8383" stroke-width="2" stroke-linecap="round" stroke-linejoin="round"/>
</svg>
